<svg width="127" height="30" viewBox="0 0 127 30" fill="none" xmlns="http://www.w3.org/2000/svg">
<g clip-path="url(#clip0_32_819)">
<path fill-rule="evenodd" clip-rule="evenodd" d="M29.9981 29.936H28.3004V1.7045L1.68645 1.71955V29.936H0V0H29.9981V29.936Z" fill="#164F72"/>
<path fill-rule="evenodd" clip-rule="evenodd" d="M2.359 21.0826C13.2069 16.8796 11.0155 1.70654 11.0155 1.70654H9.37049C9.72474 10.436 7.71419 15.4329 3.64033 18.428C3.9795 17.952 7.63317 15.3745 7.42778 1.70654H5.63204C5.5887 3.57849 6.13138 15.2165 0.990997 19.7694C0.990997 19.7694 3.97008 15.5815 3.57061 1.70654H0.15625V30.0002H3.61583C3.56872 26.0587 3.11272 23.4098 1.80502 22.4578C1.80502 22.4578 5.56985 22.3675 5.66219 30.0002H7.42966C7.42589 30.0002 7.92712 22.5764 2.359 21.0826Z" fill="#164F72"/>
<path fill-rule="evenodd" clip-rule="evenodd" d="M27.6504 21.0392C16.8043 16.8494 18.9939 1.49761 18.9939 1.49761H20.641C20.1115 10.1067 22.2989 15.4121 26.369 18.394C26.0336 17.918 22.2066 15.1054 22.6758 1.49756H24.3566C24.4037 3.36762 23.8818 15.1938 29.0221 19.7317C29.0221 19.7317 25.9583 15.3199 26.3596 1.49761H30.0001V29.9229H26.3973C26.4482 25.9966 26.908 23.4605 28.2157 22.5142C28.2157 22.5142 24.3924 22.3185 24.3001 29.9229H22.5929C22.5891 29.9248 21.7355 22.8999 27.6504 21.0392Z" fill="#164F72"/>
</g>
<path d="M44.113 9.57146C43.1148 9.57146 42.031 9.68652 40.8902 9.88786C40.8902 16.2158 40.9472 17.3663 41.1183 18.0278C47.0221 17.5389 47.5069 16.791 47.5069 14.0873C47.5069 11.6424 46.7939 9.57146 44.113 9.57146ZM44.17 18.5456H35.3857V18.0566L36.8973 17.769C38.0096 17.5101 38.0381 17.2512 38.0381 10.3768C38.0381 2.29439 37.9811 2.23686 36.7547 2.00676L35.3572 1.77665V1.28768H43.7137C47.7066 1.28768 49.3322 2.58202 49.3322 5.02689C49.3322 6.83897 47.5925 8.47847 45.7101 9.19754C49.2752 9.51394 50.5301 11.1247 50.5301 13.397C50.5301 16.1007 47.7921 18.5456 44.17 18.5456ZM44.2556 9.14002C44.5978 9.14002 44.9401 9.14002 45.2253 9.16878C46.0238 8.47846 46.4517 7.04031 46.4517 5.37204C46.4517 2.4382 45.1968 1.92047 41.1183 1.83418C40.9757 2.49573 40.8902 3.47368 40.8902 9.16878C42.0025 9.14002 43.1148 9.14002 44.2556 9.14002Z" fill="#164F72"/>
<path d="M57.6571 9.65775C57.6571 16.0144 57.7427 17.3088 57.8853 17.9991C62.2489 17.5964 62.8193 16.7623 63.7035 14.2311L64.7872 10.233L65.2721 10.2618C64.9298 13.1669 64.5591 16.187 64.5305 18.5456H52.1526V18.0566L53.6357 17.769C54.7765 17.5389 54.805 17.28 54.805 10.4056C54.805 2.29439 54.7195 2.2081 53.5216 2.00676L52.0671 1.77665V1.28768H60.7658V1.77665L58.6838 2.03552C57.7712 2.15057 57.6571 2.46697 57.6571 9.65775Z" fill="#164F72"/>
<path d="M69.121 10.4056C69.121 2.35191 69.064 2.2081 67.8946 2.00676L66.383 1.77665V1.28768H74.6825V1.77665L72.9998 2.03552C72.0586 2.2081 71.9731 2.55325 71.9731 9.3126C71.9731 17.4238 72.0301 17.5676 73.2565 17.7977L74.711 18.0566V18.5456H66.4116V18.0566L67.8946 17.769C69.121 17.5389 69.121 17.2512 69.121 10.4056Z" fill="#164F72"/>
<path d="M90.7418 18.8907C88.3175 15.4967 82.7846 7.81691 79.904 4.04894C79.5903 3.67502 79.3336 3.35862 79.0484 3.07099C79.191 15.8131 80.3033 17.1649 82.4994 17.5964L85.7222 18.0566L85.6937 18.5456H75.74V18.0566L77.0234 17.8265C78.3354 17.5101 78.4494 16.5609 78.5635 2.63955C78.1357 2.32315 77.6794 2.09304 77.0519 1.97799L75.683 1.77665V1.28768H82.1001C83.9539 4.3941 87.0912 9.19754 90.7418 13.6846C90.5707 2.9847 90.1143 2.38068 88.7739 2.15057L85.9789 1.77665L86.0074 1.28768H93.5938V1.77665L92.7667 1.94923C91.5689 2.26562 91.2552 3.35862 91.2552 14.9502C91.2552 16.3883 91.2837 18.0854 91.3122 18.862L90.7418 18.8907Z" fill="#164F72"/>
<path d="M100.132 10.0029C100.132 16.0719 100.217 17.2225 100.388 18.0278C107.804 17.3663 109.03 15.7268 109.03 10.4919C109.03 4.9406 106.805 1.86294 101.586 1.83418C101.187 1.83418 100.759 1.86294 100.388 1.8917C100.189 2.7546 100.132 4.27904 100.132 10.0029ZM103.725 1.28768C109.401 1.28768 112.11 4.33657 112.11 9.16878C112.11 14.6338 108.688 18.5456 103.155 18.5456H94.57V18.0566L95.939 17.769C97.2794 17.5101 97.2794 17.2225 97.2794 10.3768C97.2794 2.35191 97.2224 2.2081 96.0531 2.00676L94.5415 1.77665V1.28768H103.725Z" fill="#164F72"/>
<path d="M121.15 1.02881C123.317 1.02881 124.743 1.48902 125.713 1.74789C125.57 3.58873 125.428 5.42957 125.399 7.6731H124.971L124.543 5.74597C123.916 3.01347 122.062 1.77665 119.809 1.77665C118.041 1.77665 116.957 2.69707 116.957 4.25028C116.957 6.17741 117.841 7.32794 121.264 8.47846C125.257 9.83033 126.568 11.1247 126.568 13.397C126.568 16.2733 124.002 18.8332 119.353 18.8332C117.157 18.8332 115.303 18.0566 114.333 17.4813C114.419 15.8706 114.561 14.0585 114.59 11.8725H115.018L115.388 13.6558C116.044 16.5321 117.898 17.4813 121.777 17.4813C124.315 17.4813 124.971 16.676 124.971 15.1803C124.971 13.397 123.973 12.4478 119.467 10.8946C115.93 9.77281 114.704 8.24836 114.704 6.23494C114.704 3.38739 117.527 1.02881 121.15 1.02881Z" fill="#164F72"/>
<path d="M39.4925 24.0058C39.2073 24.0058 39.0899 24.0632 39.0899 24.2106C39.0899 24.3745 39.2996 24.776 39.5848 25.3168C39.8029 24.8416 39.8951 24.563 39.9035 24.309C39.9035 24.0959 39.8364 24.0058 39.4925 24.0058ZM39.417 26.4639C39.3751 26.3656 39.3247 26.2672 39.2828 26.1771C38.9389 26.9309 38.5195 27.9224 38.0414 28.9711H37.9155C37.6639 28.3976 37.1271 27.2177 36.7748 26.4803C35.9695 24.8006 35.7766 24.227 35.483 24.0795L35.3572 24.0222V23.8829H37.622V24.0222L37.3452 24.0386C36.8922 24.0877 36.7832 24.1861 36.7832 24.3581C36.7832 24.6121 37.1858 25.4069 37.5549 26.1771C37.7394 26.5458 38.2091 27.4963 38.4021 27.8486C38.6956 27.1931 38.9808 26.5786 39.2241 26.0542C38.6369 24.7924 38.3601 24.2024 38.142 24.0713L38.033 24.0222V23.8829H40.6333V24.0222L40.4907 24.0795C40.3062 24.1533 40.0713 24.5302 39.6435 25.4233C39.7274 25.5872 39.8196 25.7674 39.9203 25.9559C40.3062 26.6687 40.7004 27.4225 41.0024 27.9142C41.4889 26.7097 42.0509 25.2103 42.0509 24.6121C42.0509 24.268 41.8831 24.1123 41.4637 24.0632L41.0443 24.0222V23.8829H43.2084V24.0222L43.0994 24.0713C42.7639 24.2434 42.3277 25.4643 40.6585 28.9711H40.5326C40.3145 28.4386 39.7525 27.1685 39.417 26.4639Z" fill="#164F72"/>
<path d="M45.2388 28.6598V28.7991H43.0411V28.6598L43.1502 28.6188C43.4605 28.5123 43.9387 27.2751 45.6163 23.7026H45.784C46.0441 24.2926 46.6061 25.4561 46.9248 26.1443C47.6798 27.7667 47.9817 28.4631 48.2753 28.6106L48.3927 28.6598V28.7991H46.0525V28.6598L46.5306 28.6188C46.7906 28.5942 46.9164 28.5451 46.9164 28.373C46.9164 28.2173 46.6061 27.4799 46.3209 26.849C46.0357 26.8326 45.7505 26.8326 45.4485 26.8326C45.113 26.8326 44.7859 26.8326 44.4923 26.849C44.3161 27.4143 44.2155 27.865 44.2155 28.078C44.2155 28.414 44.3748 28.5615 44.702 28.6024L45.2388 28.6598ZM45.4485 26.7097C45.7337 26.7097 45.9937 26.7097 46.2538 26.7015C46.2454 26.6687 46.2286 26.636 46.2118 26.6032C45.9266 25.9887 45.4988 25.1119 45.2975 24.7186C44.9872 25.4069 44.7271 26.1034 44.5342 26.6933C44.8362 26.7097 45.1382 26.7097 45.4485 26.7097Z" fill="#164F72"/>
<path d="M51.7486 26.1689C52.4532 26.1689 52.7216 25.8494 52.7216 25.2021C52.7216 24.4565 52.3106 24.0304 51.3795 24.0304C51.2033 24.0304 51.0272 24.0468 50.8594 24.0713C50.8259 24.2598 50.7923 24.6695 50.7923 26.0952C51.1195 26.1525 51.3795 26.1689 51.7486 26.1689ZM51.8073 28.6598V28.7991H49.1818V28.6598L49.6096 28.5778C49.9535 28.5123 49.9619 28.4304 49.9619 26.4721C49.9619 24.1615 49.9367 24.1451 49.5677 24.0877L49.1566 24.0222V23.8829H52.0757C53.141 23.8829 53.6107 24.2926 53.6107 24.8743C53.6107 25.4725 53.1494 26.0542 52.3441 26.2672C52.99 27.5373 53.6694 28.414 53.963 28.5697L54.1979 28.6598V28.7991H52.9565C52.6964 28.5041 52.1428 27.5618 51.5724 26.3492C51.3124 26.341 51.0356 26.3082 50.7923 26.2427C50.7923 28.4795 50.8175 28.5123 51.2453 28.5778L51.8073 28.6598Z" fill="#164F72"/>
<path d="M59.2996 26.8572C59.2325 27.5291 59.1738 28.2337 59.1486 28.7991H55.0636V28.6598L55.525 28.5778C55.8353 28.5123 55.8437 28.4386 55.8437 26.4475C55.8437 24.1697 55.8186 24.1451 55.4663 24.0877L55.0385 24.0222V23.8829H59.0899C59.1151 24.4237 59.1654 25.1037 59.2409 25.751H59.1067L58.8467 24.9726C58.5615 24.2598 58.3266 24.1041 56.7329 24.0304C56.6909 24.2352 56.6742 24.6367 56.6742 26.2345C57.7227 26.2181 57.8653 26.0952 57.9743 25.6363L58.0666 25.1119H58.1588C58.1505 25.6937 58.2343 26.9555 58.3014 27.5209H58.2092L58.0582 27.0047C57.8988 26.4885 57.7143 26.3983 56.6742 26.3656C56.6742 28.0043 56.6993 28.4304 56.7329 28.6434C58.3434 28.5778 58.637 28.4467 58.897 27.7257L59.1738 26.8572H59.2996Z" fill="#164F72"/>
<path d="M64.8103 26.4803C64.8103 26.4065 64.8103 26.341 64.8103 26.2836C64.4077 26.2672 63.9966 26.2672 63.5688 26.2672C63.1327 26.2672 62.7216 26.2672 62.3022 26.2836C62.3022 28.4795 62.3274 28.5205 62.6797 28.586L63.1075 28.6598V28.7991H60.6666V28.6598L61.1027 28.5778C61.4634 28.5123 61.4634 28.4304 61.4634 26.4803C61.4634 24.1861 61.4467 24.1451 61.1027 24.0877L60.6582 24.0222V23.8829H63.0991V24.0222L62.6042 24.0959C62.3274 24.1451 62.3022 24.2434 62.3022 26.1198C62.7216 26.1361 63.1327 26.1361 63.5688 26.1361C63.9966 26.1361 64.4077 26.1361 64.8103 26.1198C64.8103 24.1779 64.7767 24.1451 64.4496 24.0877L64.005 24.0222V23.8829H66.446V24.0222L65.9511 24.0959C65.6743 24.1451 65.6491 24.2434 65.6491 26.1689C65.6491 28.4795 65.6659 28.5205 66.0266 28.586L66.4544 28.6598V28.7991H64.0134V28.6598L64.4496 28.5778C64.8103 28.5123 64.8103 28.4304 64.8103 26.4803Z" fill="#164F72"/>
<path d="M68.5809 25.9395C68.5809 27.7011 69.2267 28.627 70.4095 28.627C71.2818 28.627 71.6928 28.0453 71.6928 26.6032C71.6928 24.9153 71.005 24.0468 69.9062 24.0468C68.9667 24.0468 68.5809 24.4974 68.5809 25.9395ZM72.6743 26.0214C72.6743 27.7749 71.5754 28.881 69.9397 28.881C68.5389 28.881 67.6078 27.8322 67.6078 26.3C67.6078 24.7678 68.6228 23.801 70.3256 23.801C71.8019 23.801 72.6743 24.6531 72.6743 26.0214Z" fill="#164F72"/>
<path d="M78.2932 25.9559C78.2932 26.3328 78.31 26.7097 78.31 26.9063C78.31 28.0043 77.7061 28.8892 76.3724 28.8892C74.9967 28.8892 74.4934 28.2337 74.4934 27.2013C74.4934 26.9227 74.5102 26.6114 74.5102 26.2017C74.5102 24.1943 74.4767 24.1451 74.1327 24.0795L73.7721 24.0222L73.7804 23.8829H76.1794V24.0222L75.6594 24.0959C75.3574 24.1451 75.3406 24.268 75.3406 26.7916C75.3406 28.0043 75.7852 28.4713 76.8756 28.4713C77.7396 28.4713 77.9913 28.1764 77.9913 27.0374C77.9913 24.3991 77.8571 24.1943 77.3705 24.0877L76.9176 24.0222V23.8829H78.9978V24.0222L78.612 24.0959C78.352 24.1615 78.2932 24.2434 78.2932 25.9559Z" fill="#164F72"/>
<path d="M82.2056 23.8092C82.8431 23.8092 83.2625 23.9403 83.5477 24.014C83.5057 24.5384 83.4638 25.0628 83.4554 25.7019H83.3296L83.2037 25.1529C83.0192 24.3745 82.474 24.0222 81.8113 24.0222C81.2913 24.0222 80.9725 24.2844 80.9725 24.7268C80.9725 25.2758 81.2325 25.6036 82.2391 25.9313C83.4135 26.3164 83.7993 26.6851 83.7993 27.3324C83.7993 28.1518 83.0444 28.881 81.6771 28.881C81.0312 28.881 80.486 28.6598 80.2008 28.4959C80.226 28.0371 80.2679 27.5209 80.2763 26.8982H80.4021L80.5112 27.4062C80.7041 28.2255 81.2493 28.4959 82.3901 28.4959C83.1366 28.4959 83.3296 28.2665 83.3296 27.8404C83.3296 27.3324 83.036 27.062 81.7107 26.6196C80.6705 26.3 80.3099 25.8658 80.3099 25.2922C80.3099 24.481 81.1403 23.8092 82.2056 23.8092Z" fill="#164F72"/>
<path d="M89.274 26.8572C89.2069 27.5291 89.1482 28.2337 89.123 28.7991H85.038V28.6598L85.4993 28.5778C85.8097 28.5123 85.8181 28.4386 85.8181 26.4475C85.8181 24.1697 85.7929 24.1451 85.4406 24.0877L85.0128 24.0222V23.8829H89.0643C89.0894 24.4237 89.1398 25.1037 89.2153 25.751H89.0811L88.821 24.9726C88.5358 24.2598 88.301 24.1041 86.7072 24.0304C86.6653 24.2352 86.6485 24.6367 86.6485 26.2345C87.697 26.2181 87.8396 26.0952 87.9487 25.6363L88.0409 25.1119H88.1332C88.1248 25.6937 88.2087 26.9555 88.2758 27.5209H88.1835L88.0325 27.0047C87.8732 26.4885 87.6886 26.3983 86.6485 26.3656C86.6485 28.0043 86.6737 28.4304 86.7072 28.6434C88.3177 28.5778 88.6113 28.4467 88.8713 27.7257L89.1482 26.8572H89.274Z" fill="#164F72"/>
<path d="M94.9034 23.8092C95.5409 23.8092 95.9603 23.9403 96.2455 24.014C96.2035 24.5384 96.1616 25.0628 96.1532 25.7019H96.0274L95.9016 25.1529C95.717 24.3745 95.1718 24.0222 94.5091 24.0222C93.9891 24.0222 93.6703 24.2844 93.6703 24.7268C93.6703 25.2758 93.9304 25.6036 94.9369 25.9313C96.1113 26.3164 96.4971 26.6851 96.4971 27.3324C96.4971 28.1518 95.7422 28.881 94.3749 28.881C93.729 28.881 93.1838 28.6598 92.8986 28.4959C92.9238 28.0371 92.9657 27.5209 92.9741 26.8982H93.0999L93.209 27.4062C93.4019 28.2255 93.9471 28.4959 95.0879 28.4959C95.8345 28.4959 96.0274 28.2665 96.0274 27.8404C96.0274 27.3324 95.7338 27.062 94.4085 26.6196C93.3684 26.3 93.0077 25.8658 93.0077 25.2922C93.0077 24.481 93.8381 23.8092 94.9034 23.8092Z" fill="#164F72"/>
<path d="M101.29 28.7991H98.6228V28.6598L99.0842 28.586C99.5371 28.5123 99.5371 28.4386 99.5371 26.7589C99.2687 26.382 98.9584 25.9395 98.7403 25.6445C97.8595 24.4319 97.6918 24.1615 97.4233 24.0632L97.2975 24.0222V23.8829H99.6294V24.0222L99.1765 24.055C98.8997 24.0714 98.7822 24.0959 98.7822 24.2188C98.7822 24.3417 99.0171 24.7105 99.4533 25.3414C99.7385 25.7592 100.124 26.3 100.317 26.5622C100.921 25.6281 101.399 24.7596 101.399 24.4237C101.399 24.2024 101.29 24.1041 100.913 24.0632L100.376 24.0222V23.8829H102.599V24.0222L102.507 24.0468C102.221 24.1205 101.735 24.8088 100.368 26.7179C100.368 28.5041 100.41 28.5205 100.846 28.5942L101.299 28.6598L101.29 28.7991Z" fill="#164F72"/>
<path d="M105.122 26.3656C105.122 28.0944 105.147 28.4222 105.197 28.6516C107.378 28.4631 107.739 27.9961 107.739 26.5049C107.739 24.9235 107.085 24.0468 105.55 24.0386C105.432 24.0386 105.306 24.0468 105.197 24.055C105.139 24.3008 105.122 24.735 105.122 26.3656ZM106.179 23.8829C107.848 23.8829 108.645 24.7514 108.645 26.128C108.645 27.6847 107.638 28.7991 106.011 28.7991H103.486V28.6598L103.889 28.5778C104.283 28.5041 104.283 28.4222 104.283 26.4721C104.283 24.1861 104.266 24.1451 103.922 24.0877L103.478 24.0222V23.8829H106.179Z" fill="#164F72"/>
<path d="M114.197 28.8974C113.484 27.9305 111.857 25.7428 111.01 24.6695C110.918 24.563 110.842 24.4728 110.758 24.3909C110.8 28.0207 111.127 28.4058 111.773 28.5287L112.721 28.6598L112.713 28.7991H109.785V28.6598L110.163 28.5942C110.548 28.5041 110.582 28.2337 110.616 24.268C110.49 24.1779 110.356 24.1123 110.171 24.0795L109.768 24.0222V23.8829H111.656C112.201 24.7678 113.124 26.1361 114.197 27.4143C114.147 24.3663 114.013 24.1943 113.619 24.1287L112.797 24.0222L112.805 23.8829H115.036V24.0222L114.793 24.0713C114.441 24.1615 114.348 24.4728 114.348 27.7749C114.348 28.1846 114.357 28.668 114.365 28.8892L114.197 28.8974Z" fill="#164F72"/>
<path d="M120.289 26.8572C120.222 27.5291 120.163 28.2337 120.138 28.7991H116.053V28.6598L116.514 28.5778C116.825 28.5123 116.833 28.4386 116.833 26.4475C116.833 24.1697 116.808 24.1451 116.456 24.0877L116.028 24.0222V23.8829H120.079C120.104 24.4237 120.155 25.1037 120.23 25.751H120.096L119.836 24.9726C119.551 24.2598 119.316 24.1041 117.722 24.0304C117.68 24.2352 117.663 24.6367 117.663 26.2345C118.712 26.2181 118.855 26.0952 118.964 25.6363L119.056 25.1119H119.148C119.14 25.6937 119.224 26.9555 119.291 27.5209H119.199L119.048 27.0047C118.888 26.4885 118.704 26.3983 117.663 26.3656C117.663 28.0043 117.689 28.4304 117.722 28.6434C119.333 28.5778 119.626 28.4467 119.886 27.7257L120.163 26.8572H120.289Z" fill="#164F72"/>
<path d="M125.26 28.7991H122.592V28.6598L123.054 28.586C123.507 28.5123 123.507 28.4386 123.507 26.7589C123.238 26.382 122.928 25.9395 122.71 25.6445C121.829 24.4319 121.661 24.1615 121.393 24.0632L121.267 24.0222V23.8829H123.599V24.0222L123.146 24.055C122.869 24.0714 122.752 24.0959 122.752 24.2188C122.752 24.3417 122.987 24.7105 123.423 25.3414C123.708 25.7592 124.094 26.3 124.287 26.5622C124.891 25.6281 125.369 24.7596 125.369 24.4237C125.369 24.2024 125.26 24.1041 124.882 24.0632L124.346 24.0222V23.8829H126.568V24.0222L126.476 24.0468C126.191 24.1205 125.704 24.8088 124.337 26.7179C124.337 28.5041 124.379 28.5205 124.815 28.5942L125.268 28.6598L125.26 28.7991Z" fill="#164F72"/>
<defs>
<clipPath id="clip0_32_819">
<rect width="30" height="30" rx="3.29699" fill="white"/>
</clipPath>
</defs>
</svg>
