<svg width="271" height="85" viewBox="0 0 271 85" fill="none" xmlns="http://www.w3.org/2000/svg">
<g clip-path="url(#clip0_210_535)">
<path d="M42.8083 24.2628C42.7097 16.6761 42.6882 7.59955 42.6882 0.0514444C54.6653 -0.898231 67.0818 11.4904 66.9039 24.3679" fill="#164F72"/>
<path d="M42.8083 55.4199C42.7097 63.0066 42.6882 72.0832 42.6882 79.6313C54.6653 80.581 67.0818 68.1923 66.9039 55.3149" fill="#164F72"/>
<path d="M67.0111 52.7248H42.7869V27H67.0111C65.8642 28.8629 63.3475 33.5041 63.3667 39.9332C63.3839 46.2786 65.8621 50.8598 67.0111 52.7248Z" fill="#164F72"/>
<path d="M1.71713 24.2628H40.6431V0.0385895H9.26095C8.53851 0.0385895 7.89539 0.490918 7.64886 1.16834L0.105043 21.9626C-0.300124 23.0816 0.527359 24.2628 1.71713 24.2628Z" fill="#164F72"/>
<path d="M1.71713 52.72H40.6431V27H9.26095C8.53851 27 7.89539 27.4803 7.64886 28.1995L0.105043 50.2777C-0.300124 51.4659 0.527359 52.72 1.71713 52.72Z" fill="#164F72"/>
<path d="M1.71713 80H40.6431V55.7758H9.26095C8.53851 55.7758 7.89539 56.2281 7.64886 56.9055L0.105043 77.6998C-0.300124 78.8188 0.527359 80 1.71713 80Z" fill="#164F72"/>
</g>
<path d="M103.099 17.3267C101.074 17.3267 98.8759 17.5601 96.562 17.9684C96.562 30.803 96.6777 33.1366 97.0247 34.4784C108.999 33.4866 109.982 31.9698 109.982 26.4859C109.982 21.5271 108.536 17.3267 103.099 17.3267ZM103.214 35.5285H85.3975V34.5367L88.4634 33.9534C90.7194 33.4283 90.7773 32.9032 90.7773 18.9602C90.7773 2.56692 90.6616 2.45024 88.1742 1.98353L85.3397 1.51682V0.525051H102.289C110.387 0.525051 113.685 3.15031 113.685 8.10913C113.685 11.7845 110.156 15.1098 106.338 16.5683C113.569 17.21 116.114 20.477 116.114 25.0858C116.114 30.5697 110.561 35.5285 103.214 35.5285ZM103.388 16.4516C104.082 16.4516 104.776 16.4516 105.355 16.51C106.974 15.1098 107.842 12.1929 107.842 8.8092C107.842 2.85862 105.297 1.80851 97.0247 1.63349C96.7355 2.97529 96.562 4.95882 96.562 16.51C98.818 16.4516 101.074 16.4516 103.388 16.4516Z" fill="#164F72"/>
<path d="M130.57 17.5017C130.57 30.3947 130.743 33.0199 131.032 34.4201C139.883 33.6033 141.04 31.9115 142.833 26.7776L145.031 18.6685L146.015 18.7268C145.321 24.6191 144.569 30.7447 144.511 35.5285H119.405V34.5367L122.413 33.9534C124.727 33.4866 124.785 32.9616 124.785 19.0185C124.785 2.56692 124.611 2.3919 122.182 1.98353L119.232 1.51682V0.525051H136.875V1.51682L132.652 2.04187C130.801 2.27522 130.57 2.91695 130.57 17.5017Z" fill="#164F72"/>
<path d="M153.821 19.0185C153.821 2.6836 153.706 2.3919 151.334 1.98353L148.268 1.51682V0.525051H165.102V1.51682L161.689 2.04187C159.78 2.3919 159.606 3.09197 159.606 16.8017C159.606 33.2533 159.722 33.545 162.209 34.0117L165.159 34.5367V35.5285H148.326V34.5367L151.334 33.9534C153.821 33.4866 153.821 32.9032 153.821 19.0185Z" fill="#164F72"/>
<path d="M197.674 36.2286C192.757 29.3446 181.535 13.768 175.692 6.12561C175.056 5.3672 174.535 4.72547 173.957 4.14208C174.246 29.9863 176.502 32.7282 180.956 33.6033L187.493 34.5367L187.435 35.5285H167.246V34.5367L169.85 34.07C172.511 33.4283 172.742 31.5031 172.973 3.26699C172.106 2.62526 171.18 2.15855 169.907 1.92519L167.131 1.51682V0.525051H180.146C183.906 6.82567 190.27 16.5683 197.674 25.6692C197.327 3.96706 196.401 2.74194 193.683 2.27522L188.014 1.51682L188.071 0.525051H203.459V1.51682L201.781 1.86685C199.352 2.50858 198.715 4.72547 198.715 28.2361C198.715 31.1531 198.773 34.5951 198.831 36.1702L197.674 36.2286Z" fill="#164F72"/>
<path d="M216.719 18.2018C216.719 30.5113 216.892 32.8449 217.239 34.4784C232.28 33.1366 234.767 29.8113 234.767 19.1936C234.767 7.93412 230.255 1.69183 219.669 1.63349C218.859 1.63349 217.991 1.69183 217.239 1.75017C216.834 3.50034 216.719 6.59232 216.719 18.2018ZM224.007 0.525051C235.519 0.525051 241.014 6.70899 241.014 16.51C241.014 27.5944 234.073 35.5285 222.85 35.5285H205.439V34.5367L208.215 33.9534C210.934 33.4283 210.934 32.8449 210.934 18.9602C210.934 2.6836 210.818 2.3919 208.447 1.98353L205.381 1.51682V0.525051H224.007Z" fill="#164F72"/>
<path d="M259.349 0C263.745 0 266.637 0.933424 268.604 1.45848C268.315 5.19218 268.026 8.92588 267.968 13.4763H267.1L266.233 9.56761C264.96 4.0254 261.2 1.51682 256.63 1.51682C253.043 1.51682 250.845 3.38367 250.845 6.53398C250.845 10.4427 252.638 12.7763 259.58 15.1098C267.679 17.8518 270.34 20.477 270.34 25.0858C270.34 30.9197 265.133 36.1119 255.704 36.1119C251.25 36.1119 247.49 34.5367 245.523 33.37C245.697 30.103 245.986 26.4276 246.044 21.9938H246.912L247.664 25.6109C248.994 31.4448 252.754 33.37 260.621 33.37C265.77 33.37 267.1 31.7365 267.1 28.7028C267.1 25.0858 265.076 23.1606 255.936 20.0103C248.763 17.7351 246.275 14.6431 246.275 10.5594C246.275 4.78381 252.002 0 259.349 0Z" fill="#164F72"/>
<path d="M101.208 45.4175C100.113 45.4175 99.6626 45.6425 99.6626 46.2209C99.6626 46.8637 100.467 48.4383 101.562 50.5593C102.398 48.6954 102.752 47.6028 102.785 46.6066C102.785 45.771 102.527 45.4175 101.208 45.4175ZM100.918 55.0583C100.757 54.6727 100.564 54.2871 100.403 53.9336C99.0832 56.8901 97.4739 60.7785 95.6393 64.8919H95.1565C94.1909 62.6424 92.131 58.0148 90.7792 55.1226C87.6893 48.5347 86.949 46.2852 85.8225 45.7068L85.3397 45.4818V44.9355H94.03V45.4818L92.9678 45.5461C91.2298 45.7389 90.8113 46.1245 90.8113 46.7994C90.8113 47.7956 92.3563 50.9128 93.7725 53.9336C94.4806 55.3797 96.283 59.1075 97.0233 60.4893C98.1498 57.9184 99.2442 55.5082 100.178 53.4515C97.9245 48.5026 96.8624 46.1888 96.0255 45.6746L95.6071 45.4818V44.9355H105.585V45.4818L105.038 45.7068C104.33 45.996 103.428 47.4742 101.787 50.9771C102.109 51.6198 102.463 52.3268 102.849 53.0659C104.33 55.8617 105.842 58.8182 107.001 60.7464C108.868 56.0224 111.024 50.1415 111.024 47.7956C111.024 46.4459 110.381 45.8353 108.771 45.6425L107.162 45.4818V44.9355H115.466V45.4818L115.048 45.6746C113.76 46.3495 112.087 51.1377 105.681 64.8919H105.199C104.362 62.8031 102.205 57.822 100.918 55.0583Z" fill="#164F72"/>
<path d="M120.521 63.6708V64.2171H112.088V63.6708L112.507 63.5101C113.698 63.0923 115.532 58.2398 121.97 44.2285H122.613C123.611 46.5423 125.768 51.1056 126.991 53.805C129.887 60.1679 131.046 62.8995 132.173 63.4779L132.623 63.6708V64.2171H123.643V63.6708L125.478 63.5101C126.476 63.4137 126.958 63.2209 126.958 62.546C126.958 61.9354 125.768 59.0432 124.673 56.5687C123.579 56.5044 122.484 56.5044 121.326 56.5044C120.038 56.5044 118.783 56.5044 117.657 56.5687C116.981 58.7861 116.594 60.5536 116.594 61.3891C116.594 62.7067 117.206 63.2851 118.461 63.4458L120.521 63.6708ZM121.326 56.0224C122.42 56.0224 123.418 56.0224 124.416 55.9903C124.383 55.8617 124.319 55.7332 124.255 55.6046C123.16 53.1944 121.519 49.7559 120.746 48.2134C119.556 50.9128 118.558 53.6443 117.817 55.9581C118.976 56.0224 120.135 56.0224 121.326 56.0224Z" fill="#164F72"/>
<path d="M142.764 53.9014C145.468 53.9014 146.498 52.6481 146.498 50.1094C146.498 47.185 144.921 45.514 141.348 45.514C140.672 45.514 139.996 45.5782 139.352 45.6746C139.224 46.4138 139.095 48.0206 139.095 53.6122C140.35 53.8372 141.348 53.9014 142.764 53.9014ZM142.989 63.6708V64.2171H132.915V63.6708L134.557 63.3494C135.876 63.0923 135.908 62.771 135.908 55.0905C135.908 46.0281 135.812 45.9639 134.396 45.7389L132.819 45.4818V44.9355H144.019C148.107 44.9355 149.91 46.5423 149.91 48.824C149.91 51.1699 148.139 53.4515 145.049 54.2871C147.528 59.2681 150.135 62.7067 151.261 63.3173L152.163 63.6708V64.2171H147.399C146.401 63.0602 144.277 59.3645 142.088 54.6084C141.09 54.5763 140.028 54.4477 139.095 54.1907C139.095 62.9638 139.191 63.0923 140.833 63.3494L142.989 63.6708Z" fill="#164F72"/>
<path d="M169.003 56.6009C168.745 59.236 168.52 61.9997 168.424 64.2171H152.749V63.6708L154.519 63.3494C155.71 63.0923 155.742 62.8031 155.742 54.9941C155.742 46.0603 155.646 45.9639 154.294 45.7389L152.652 45.4818V44.9355H168.198C168.295 47.0565 168.488 49.7238 168.778 52.2625H168.263L167.265 49.2096C166.17 46.4138 165.269 45.8032 159.154 45.514C158.993 46.3174 158.929 47.892 158.929 54.1585C162.952 54.0942 163.499 53.6122 163.917 51.8126L164.271 49.7559H164.626C164.593 52.0375 164.915 56.9865 165.173 59.2039H164.819L164.239 57.1793C163.628 55.1547 162.92 54.8012 158.929 54.6727C158.929 61.0999 159.025 62.771 159.154 63.6065C165.334 63.3494 166.46 62.8352 167.458 60.0073L168.52 56.6009H169.003Z" fill="#164F72"/>
<path d="M187.412 55.1226C187.412 54.8334 187.412 54.5763 187.412 54.3513C185.867 54.2871 184.29 54.2871 182.649 54.2871C180.975 54.2871 179.398 54.2871 177.788 54.3513C177.788 62.9638 177.885 63.1244 179.237 63.3815L180.878 63.6708V64.2171H171.512V63.6708L173.186 63.3494C174.57 63.0923 174.57 62.771 174.57 55.1226C174.57 46.1245 174.505 45.9639 173.186 45.7389L171.48 45.4818V44.9355H180.846V45.4818L178.947 45.771C177.885 45.9639 177.788 46.3495 177.788 53.7086C179.398 53.7729 180.975 53.7729 182.649 53.7729C184.29 53.7729 185.867 53.7729 187.412 53.7086C187.412 46.0924 187.283 45.9639 186.028 45.7389L184.322 45.4818V44.9355H193.689V45.4818L191.79 45.771C190.727 45.9639 190.631 46.3495 190.631 53.9014C190.631 62.9638 190.695 63.1244 192.079 63.3815L193.721 63.6708V64.2171H184.355V63.6708L186.028 63.3494C187.412 63.0923 187.412 62.771 187.412 55.1226Z" fill="#164F72"/>
<path d="M199.145 53.0016C199.145 59.9109 201.623 63.5422 206.161 63.5422C209.509 63.5422 211.086 61.2606 211.086 55.6046C211.086 48.9846 208.447 45.5782 204.23 45.5782C200.625 45.5782 199.145 47.3457 199.145 53.0016ZM214.852 53.323C214.852 60.2001 210.635 64.5384 204.359 64.5384C198.984 64.5384 195.411 60.425 195.411 54.4156C195.411 48.4062 199.306 44.6141 205.839 44.6141C211.504 44.6141 214.852 47.9563 214.852 53.323Z" fill="#164F72"/>
<path d="M233.677 53.0659C233.677 54.5442 233.741 56.0224 233.741 56.7937C233.741 61.0999 231.424 64.5706 226.306 64.5706C221.027 64.5706 219.096 61.9997 219.096 57.9506C219.096 56.8579 219.161 55.6368 219.161 54.03C219.161 46.1567 219.032 45.9639 217.712 45.7068L216.328 45.4818L216.36 44.9355H225.566V45.4818L223.57 45.771C222.411 45.9639 222.347 46.4459 222.347 56.3438C222.347 61.0999 224.053 62.9316 228.237 62.9316C231.552 62.9316 232.518 61.7747 232.518 57.3078C232.518 46.9601 232.003 46.1567 230.136 45.7389L228.398 45.4818V44.9355H236.38V45.4818L234.9 45.771C233.902 46.0281 233.677 46.3495 233.677 53.0659Z" fill="#164F72"/>
<path d="M245.953 44.6463C248.399 44.6463 250.008 45.1605 251.103 45.4497C250.942 47.5064 250.781 49.5631 250.749 52.0697H250.266L249.783 49.9166C249.075 46.8637 246.983 45.4818 244.44 45.4818C242.445 45.4818 241.222 46.5102 241.222 48.2455C241.222 50.3986 242.219 51.6841 246.082 52.9695C250.588 54.4799 252.068 55.926 252.068 58.4647C252.068 61.6783 249.172 64.5384 243.925 64.5384C241.447 64.5384 239.355 63.6708 238.26 63.028C238.357 61.2284 238.518 59.2039 238.55 56.7615H239.033L239.451 58.754C240.192 61.9676 242.284 63.028 246.661 63.028C249.526 63.028 250.266 62.1282 250.266 60.4572C250.266 58.4647 249.139 57.4043 244.054 55.6689C240.063 54.4156 238.679 52.7124 238.679 50.4629C238.679 47.2814 241.865 44.6463 245.953 44.6463Z" fill="#164F72"/>
<path d="M270.34 56.6009C270.082 59.236 269.857 61.9997 269.76 64.2171H254.086V63.6708L255.856 63.3494C257.047 63.0923 257.079 62.8031 257.079 54.9941C257.079 46.0603 256.982 45.9639 255.63 45.7389L253.989 45.4818V44.9355H269.535C269.632 47.0565 269.825 49.7238 270.114 52.2625H269.599L268.602 49.2096C267.507 46.4138 266.606 45.8032 260.491 45.514C260.33 46.3174 260.265 47.892 260.265 54.1585C264.289 54.0942 264.836 53.6122 265.254 51.8126L265.608 49.7559H265.962C265.93 52.0375 266.252 56.9865 266.509 59.2039H266.155L265.576 57.1793C264.965 55.1547 264.256 54.8012 260.265 54.6727C260.265 61.0999 260.362 62.771 260.491 63.6065C266.67 63.3494 267.797 62.8352 268.795 60.0073L269.857 56.6009H270.34Z" fill="#164F72"/>
<path d="M146.627 73C147.99 73 148.887 73.287 149.497 73.4484C149.407 74.5964 149.317 75.7444 149.299 77.1435H149.03L148.761 75.9417C148.367 74.2377 147.201 73.4664 145.784 73.4664C144.671 73.4664 143.99 74.0404 143.99 75.009C143.99 76.2108 144.546 76.9283 146.698 77.6457C149.21 78.4888 150.035 79.296 150.035 80.713C150.035 82.5067 148.42 84.1031 145.497 84.1031C144.115 84.1031 142.95 83.6188 142.34 83.2601C142.393 82.2556 142.483 81.1256 142.501 79.7623H142.77L143.003 80.8744C143.416 82.6682 144.582 83.2601 147.021 83.2601C148.618 83.2601 149.03 82.7578 149.03 81.8251C149.03 80.713 148.402 80.1211 145.568 79.1525C143.344 78.4529 142.573 77.5022 142.573 76.2466C142.573 74.4709 144.349 73 146.627 73Z" fill="#164F72"/>
<path d="M160.284 83.9238H154.58V83.6188L155.567 83.4574C156.536 83.296 156.536 83.1345 156.536 79.4574C155.962 78.6323 155.298 77.6637 154.832 77.0179C152.948 74.3632 152.589 73.7713 152.015 73.5561L151.746 73.4664V73.1614H156.733V73.4664L155.764 73.5381C155.172 73.574 154.921 73.6278 154.921 73.8969C154.921 74.1659 155.423 74.9731 156.356 76.3543C156.966 77.2691 157.791 78.4529 158.204 79.0269C159.495 76.9821 160.518 75.0807 160.518 74.3453C160.518 73.861 160.284 73.6457 159.477 73.5561L158.329 73.4664V73.1614H163.083V73.4664L162.885 73.5202C162.275 73.6816 161.235 75.1883 158.311 79.3677C158.311 83.278 158.401 83.3139 159.334 83.4753L160.302 83.6188L160.284 83.9238Z" fill="#164F72"/>
<path d="M168.478 78.5964C168.478 82.3812 168.532 83.0987 168.639 83.6009C173.303 83.1883 174.074 82.1659 174.074 78.9013C174.074 75.4395 172.675 73.5202 169.393 73.5022C169.142 73.5022 168.873 73.5202 168.639 73.5381C168.514 74.0762 168.478 75.0269 168.478 78.5964ZM170.738 73.1614C174.308 73.1614 176.012 75.0628 176.012 78.0762C176.012 81.4843 173.859 83.9238 170.379 83.9238H164.98V83.6188L165.841 83.4395C166.684 83.278 166.684 83.0987 166.684 78.8296C166.684 73.8251 166.648 73.7354 165.913 73.6099L164.962 73.4664V73.1614H170.738Z" fill="#164F72"/>
<path d="M187.885 84.139C186.36 82.0224 182.881 77.2332 181.069 74.8834C180.872 74.6502 180.71 74.4529 180.531 74.2735C180.62 82.2197 181.32 83.0628 182.701 83.3318L184.728 83.6188L184.71 83.9238H178.45V83.6188L179.257 83.4753C180.082 83.278 180.154 82.6861 180.226 74.0045C179.957 73.8072 179.67 73.6637 179.275 73.5919L178.414 73.4664V73.1614H182.45C183.616 75.0987 185.589 78.0942 187.885 80.8924C187.777 74.2197 187.49 73.843 186.647 73.6996L184.89 73.4664L184.907 73.1614H189.679V73.4664L189.159 73.574C188.405 73.7713 188.208 74.4529 188.208 81.6816C188.208 82.5785 188.226 83.6368 188.244 84.1211L187.885 84.139Z" fill="#164F72"/>
<path d="M200.912 79.6726C200.768 81.1435 200.642 82.6861 200.589 83.9238H191.853V83.6188L192.84 83.4395C193.503 83.296 193.521 83.1345 193.521 78.7758C193.521 73.7892 193.468 73.7354 192.714 73.6099L191.799 73.4664V73.1614H200.463C200.517 74.3453 200.625 75.8341 200.786 77.2511H200.499L199.943 75.5471C199.333 73.9865 198.831 73.6457 195.423 73.4843C195.333 73.9327 195.297 74.8117 195.297 78.3094C197.539 78.2735 197.844 78.0045 198.077 77L198.275 75.852H198.472C198.454 77.1256 198.634 79.8879 198.777 81.1256H198.58L198.257 79.9955C197.916 78.8655 197.521 78.6682 195.297 78.5964C195.297 82.1839 195.351 83.1166 195.423 83.583C198.867 83.4395 199.495 83.1525 200.051 81.574L200.642 79.6726H200.912Z" fill="#164F72"/>
<path d="M211.541 83.9238H205.837V83.6188L206.824 83.4574C207.793 83.296 207.793 83.1345 207.793 79.4574C207.219 78.6323 206.555 77.6637 206.089 77.0179C204.205 74.3632 203.846 73.7713 203.272 73.5561L203.003 73.4664V73.1614H207.99V73.4664L207.021 73.5381C206.429 73.574 206.178 73.6278 206.178 73.8969C206.178 74.1659 206.68 74.9731 207.613 76.3543C208.223 77.2691 209.048 78.4529 209.461 79.0269C210.752 76.9821 211.775 75.0807 211.775 74.3453C211.775 73.861 211.541 73.6457 210.734 73.5561L209.586 73.4664V73.1614H214.34V73.4664L214.142 73.5202C213.532 73.6816 212.492 75.1883 209.568 79.3677C209.568 83.278 209.658 83.3139 210.591 83.4753L211.559 83.6188L211.541 83.9238Z" fill="#164F72"/>
<rect x="86.3397" y="78" width="53" height="1" fill="#164F72"/>
<rect x="217.34" y="78" width="53" height="1" fill="#164F72"/>
<defs>
<clipPath id="clip0_210_535">
<rect width="67.0111" height="80" fill="white"/>
</clipPath>
</defs>
</svg>
