<svg width="17" height="17" viewBox="0 0 17 17" fill="none" xmlns="http://www.w3.org/2000/svg">
<path d="M13.4082 0.45306H3.48979C1.84706 0.45306 0.514282 1.78584 0.514282 3.42857V13.3469C0.514282 14.9897 1.84706 16.3224 3.48979 16.3224H8.98622V10.1751H6.91989V7.77819H8.98622V6.01148C8.98622 3.96582 10.2467 2.85 12.0754 2.85C12.9432 2.85 13.6974 2.91199 13.9144 2.94298V5.08163L12.654 5.09196C11.6518 5.09196 11.4658 5.55689 11.4658 6.24911V7.77819H13.8318L13.5218 10.1751H11.4658V16.3224H13.4082C15.0509 16.3224 16.3837 14.9897 16.3837 13.3469V3.42857C16.3837 1.78584 15.0509 0.45306 13.4082 0.45306Z" fill="#164F72"/>
</svg>
