<svg width="25" height="16" viewBox="0 0 25 16" fill="none" xmlns="http://www.w3.org/2000/svg">
<path d="M15.7609 8.56339C15.7609 8.06747 15.7092 7.6852 15.6369 7.30293H8.48739V9.9065H12.7854C12.6097 11.012 11.4836 13.1713 8.48739 13.1713C5.90449 13.1713 3.79683 11.0327 3.79683 8.38775C3.79683 5.74286 5.90449 3.60421 8.48739 3.60421C9.96482 3.60421 10.9463 4.23444 11.5042 4.77168L13.5602 2.79834C12.2378 1.55855 10.5331 0.814667 8.48739 0.814667C4.30308 0.814667 0.914307 4.20344 0.914307 8.38775C0.914307 12.5721 4.30308 15.9608 8.48739 15.9608C12.8577 15.9608 15.7609 12.8923 15.7609 8.56339ZM24.7184 7.30293H22.5591V5.14362H20.3894V7.30293H18.2301V9.47258H20.3894V11.6319H22.5591V9.47258H24.7184V7.30293Z" fill="#164F72"/>
</svg>
