<svg width="48" height="48" viewBox="0 0 48 48" fill="none" xmlns="http://www.w3.org/2000/svg">
<path fill-rule="evenodd" clip-rule="evenodd" d="M24.719 0.143332L43.094 7.77243C43.7939 8.06305 44.25 8.7463 44.25 9.50408V18.7783C44.25 31.5484 36.5315 43.0353 24.7086 47.861C24.2543 48.0463 23.7456 48.0463 23.2914 47.861C11.4683 43.0352 3.75 31.5483 3.75 18.7783V9.50408C3.75 8.7463 4.20619 8.06305 4.90603 7.77243L23.281 0.143332C23.7413 -0.0478242 24.2587 -0.0477305 24.719 0.143332ZM24 44.0884C34.125 39.6275 40.5 29.6341 40.5 18.7783V10.7558L24 3.90514L7.5 10.7558V18.7783C7.5 29.9283 14.1456 39.7467 24 44.0884ZM29.688 32.08C31.0107 30.8427 31.672 29.4133 31.672 27.792C31.672 25.5947 30.7013 23.8987 28.76 22.704C28.1413 22.3413 26.7973 21.7547 24.728 20.944V12.688C25.3253 12.8587 25.8373 13.2213 26.264 13.776C26.712 14.3307 27.032 14.896 27.224 15.472C27.416 16.048 27.6933 16.5707 28.056 17.04C28.44 17.488 28.888 17.712 29.4 17.712C29.9547 17.712 30.3813 17.5413 30.68 17.2C31 16.8373 31.16 16.368 31.16 15.792C31.16 14.768 30.5733 13.8187 29.4 12.944C28.2267 12.048 26.6693 11.5253 24.728 11.376V9.36C24.728 8.99733 24.5787 8.816 24.28 8.816H23.608C23.3307 8.816 23.192 8.99733 23.192 9.36V11.344C21.08 11.4507 19.3947 12.08 18.136 13.232C16.8987 14.3627 16.28 15.7813 16.28 17.488C16.28 18.1067 16.3547 18.6827 16.504 19.216C16.6747 19.7493 16.8453 20.208 17.016 20.592C17.208 20.976 17.5173 21.36 17.944 21.744C18.392 22.128 18.744 22.416 19 22.608C19.256 22.8 19.6933 23.056 20.312 23.376C20.9307 23.6747 21.3573 23.8773 21.592 23.984C21.8267 24.0693 22.296 24.2507 23 24.528V32.816C22.424 32.6027 21.8907 32.1973 21.4 31.6C20.9307 30.9813 20.5573 30.3733 20.28 29.776C20.024 29.1787 19.672 28.6453 19.224 28.176C18.776 27.7067 18.2747 27.472 17.72 27.472C17.2293 27.472 16.824 27.6427 16.504 27.984C16.184 28.304 16.024 28.7733 16.024 29.392C16.024 30.3733 16.664 31.376 17.944 32.4C19.224 33.424 20.9093 34 23 34.128V37.168C23 37.552 23.1387 37.744 23.416 37.744H24.12C24.3973 37.744 24.536 37.552 24.536 37.168V34.128C26.648 33.9787 28.3653 33.296 29.688 32.08ZM20.952 18.576C20.44 17.936 20.184 17.1147 20.184 16.112C20.184 15.1947 20.4507 14.4267 20.984 13.808C21.5387 13.168 22.2747 12.784 23.192 12.656V20.272C22.232 19.7813 21.4853 19.216 20.952 18.576ZM26.84 31.664C26.2213 32.3893 25.4533 32.816 24.536 32.944V25.2C25.5813 25.6693 26.3813 26.2027 26.936 26.8C27.4907 27.376 27.768 28.1227 27.768 29.04C27.768 30.0427 27.4587 30.9173 26.84 31.664Z" fill="#164F72"/>
</svg>
