<svg width="17" height="14" viewBox="0 0 17 14" fill="none" xmlns="http://www.w3.org/2000/svg">
<path d="M16.7372 2.34592C16.138 2.60421 15.4871 2.79018 14.8156 2.8625C15.5078 2.44923 16.0347 1.79834 16.2827 1.02347C15.6421 1.40574 14.9189 1.68469 14.1647 1.82934C13.5551 1.17844 12.6872 0.77551 11.7264 0.77551C9.87704 0.77551 8.38929 2.2736 8.38929 4.11263C8.38929 4.37092 8.42028 4.62921 8.47194 4.87717C5.70306 4.73252 3.2338 3.41008 1.59107 1.38508C1.30179 1.88099 1.13648 2.44923 1.13648 3.06913C1.13648 4.22627 1.72538 5.24911 2.62423 5.84834C2.07666 5.82768 1.56008 5.6727 1.11582 5.42474C1.11582 5.43508 1.11582 5.45574 1.11582 5.46607C1.11582 7.08814 2.26263 8.43125 3.79171 8.7412C3.51276 8.81352 3.21314 8.85485 2.91352 8.85485C2.69656 8.85485 2.48992 8.83418 2.28329 8.80319C2.70689 10.1256 3.93635 11.0865 5.40344 11.1175C4.25663 12.0163 2.82054 12.5432 1.26046 12.5432C0.981505 12.5432 0.723214 12.5329 0.454592 12.5019C1.93202 13.4524 3.68839 14 5.57908 14C11.7161 14 15.0739 8.91684 15.0739 4.50523C15.0739 4.36059 15.0739 4.21594 15.0635 4.0713C15.7144 3.59605 16.2827 3.00714 16.7372 2.34592Z" fill="#164F72"/>
</svg>
